<svg width="24" height="24" viewBox="0 0 24 24" fill="none" xmlns="http://www.w3.org/2000/svg">
<g clip-path="url(#clip0_2001_272)">
<path d="M11.214 0.00658056C11.1624 0.0112719 10.9982 0.0276918 10.8504 0.0394203C7.44157 0.346707 4.2486 2.18573 2.22632 5.0123C1.10022 6.58391 0.379982 8.36664 0.107842 10.2549C0.0116539 10.9141 -7.62939e-05 11.1088 -7.62939e-05 12.0025C-7.62939e-05 12.8962 0.0116539 13.0909 0.107842 13.75C0.760041 18.2561 3.96708 22.0421 8.31664 23.4448C9.09552 23.6958 9.91664 23.867 10.8504 23.9702C11.214 24.0101 12.7858 24.0101 13.1495 23.9702C14.7612 23.7919 16.1266 23.3932 17.4732 22.7059C17.6797 22.6003 17.7196 22.5722 17.6914 22.5487C17.6727 22.5346 16.7929 21.3548 15.7372 19.9286L13.8181 17.3366L11.4134 13.7782C10.0902 11.8219 9.00168 10.2221 8.9923 10.2221C8.98291 10.2197 8.97353 11.8007 8.96884 13.7312C8.9618 17.1114 8.95945 17.2474 8.91723 17.3272C8.85623 17.4421 8.80931 17.4891 8.71077 17.5407C8.6357 17.5782 8.57001 17.5852 8.21576 17.5852H7.80989L7.70198 17.5172C7.6316 17.4726 7.57998 17.414 7.54479 17.346L7.49552 17.2404L7.50022 12.5373L7.50726 7.83182L7.57998 7.74034C7.61752 7.69108 7.69728 7.62775 7.75359 7.59725C7.84978 7.55034 7.88731 7.54565 8.29318 7.54565C8.77177 7.54565 8.85154 7.56441 8.97588 7.70046C9.01107 7.738 10.3131 9.699 11.8709 12.0611C13.4287 14.4232 15.5589 17.6486 16.6052 19.2319L18.5055 22.1101L18.6017 22.0467C19.4533 21.4932 20.3542 20.705 21.0674 19.884C22.5853 18.1412 23.5636 16.016 23.892 13.75C23.9882 13.0909 23.9999 12.8962 23.9999 12.0025C23.9999 11.1088 23.9882 10.9141 23.892 10.2549C23.2398 5.74885 20.0328 1.96289 15.6832 0.560165C14.9161 0.311521 14.0996 0.140285 13.1847 0.0370746C12.9595 0.0136176 11.4087 -0.012185 11.214 0.00658056ZM16.1266 7.26416C16.2392 7.32046 16.3307 7.42836 16.3636 7.54096C16.3823 7.60195 16.387 8.90615 16.3823 11.8453L16.3753 16.0629L15.6316 14.9229L14.8856 13.7829V10.717C14.8856 8.73492 14.8949 7.62071 14.909 7.56676C14.9466 7.4354 15.0287 7.33219 15.1413 7.2712C15.2375 7.22194 15.2727 7.21725 15.641 7.21725C15.9882 7.21725 16.0492 7.22194 16.1266 7.26416Z" fill="white"/>
</g>
<defs>
<clipPath id="clip0_2001_272">
<rect width="24" height="24" fill="white"/>
</clipPath>
</defs>
</svg>
