<svg width="24" height="24" viewBox="0 0 24 24" fill="none" xmlns="http://www.w3.org/2000/svg">
<g clip-path="url(#clip0_2001_181)">
<path d="M20.4001 0.00012207H3.60012C1.6119 0.00012207 0.00012207 1.6119 0.00012207 3.60012V20.4001C0.00012207 22.3883 1.6119 24.0001 3.60012 24.0001H20.4001C22.3883 24.0001 24.0001 22.3883 24.0001 20.4001V3.60012C24.0001 1.6119 22.3883 0.00012207 20.4001 0.00012207Z" fill="#3178C6"/>
<path d="M10.9221 13.3127H13.9221V11.3909H5.53149V13.3127H8.53149V21.8909H10.9221V13.3127ZM14.8596 21.4221C15.2393 21.619 15.7034 21.7643 16.219 21.8627C16.7346 21.9612 17.2971 22.0081 17.8596 22.0081C18.4221 22.0081 18.9377 21.9565 19.4534 21.8487C19.969 21.7409 20.3909 21.5627 20.7659 21.3331C21.1456 21.0846 21.469 20.7706 21.6565 20.3487C21.844 19.9268 21.9893 19.4581 21.9893 18.8487C21.9893 18.4221 21.9237 18.0518 21.7971 17.7237C21.6706 17.3956 21.4877 17.1143 21.2346 16.8799C20.9956 16.6315 20.719 16.4112 20.3909 16.2237C20.0627 16.0362 19.6877 15.8393 19.2659 15.6612C18.9565 15.5346 18.7034 15.4127 18.4221 15.2909C18.1784 15.169 17.9674 15.0471 17.8127 14.9252C17.6393 14.7987 17.5081 14.6674 17.4143 14.5315C17.3206 14.3909 17.2737 14.2362 17.2737 14.0627C17.2737 13.9034 17.3154 13.7581 17.4002 13.6268C17.4851 13.4956 17.6018 13.3877 17.7518 13.294C17.9018 13.2002 18.0893 13.1299 18.3143 13.0784C18.5346 13.0268 18.7784 13.0034 19.0643 13.0034C19.2612 13.0034 19.4674 13.0179 19.6737 13.0474C19.8893 13.077 20.1096 13.1224 20.3299 13.1834C20.5502 13.2443 20.7659 13.3193 20.9862 13.4131C21.1924 13.5068 21.3846 13.6146 21.5487 13.7365V11.5334C21.1924 11.3974 20.7987 11.2943 20.3768 11.2287C19.9549 11.1631 19.4862 11.1302 18.9237 11.1302C18.3612 11.1302 17.8456 11.1912 17.3299 11.3084C16.8143 11.4256 16.3924 11.6131 16.0174 11.8709C15.6377 12.124 15.3612 12.4334 15.1268 12.8552C14.9065 13.249 14.7987 13.699 14.7987 14.2615C14.7987 14.9646 15.0002 15.574 15.4081 16.0427C15.8112 16.5584 16.4393 16.9334 17.2362 17.3084C17.5596 17.4396 17.8456 17.5709 18.1268 17.6974C18.4081 17.824 18.6424 17.9552 18.8299 18.0912C19.0315 18.2271 19.1909 18.3771 19.2987 18.5365C19.4159 18.6959 19.4768 18.8834 19.4768 19.099C19.4768 19.249 19.4402 19.3896 19.369 19.5209C19.2977 19.6521 19.1862 19.7646 19.0362 19.8584C18.8862 19.9521 18.7034 20.0271 18.4737 20.0834C18.2534 20.1349 18.0049 20.1631 17.6768 20.1631C17.1612 20.1631 16.6456 20.074 16.1768 19.8959C15.6612 19.7177 15.1924 19.4506 14.8596 19.1721V21.4221Z" fill="white"/>
</g>
<defs>
<clipPath id="clip0_2001_181">
<rect width="24" height="24" fill="white"/>
</clipPath>
</defs>
</svg>
